<?xml version="1.0" encoding="UTF-8"?>
<svg id="Layer_1" data-name="Layer 1" xmlns="http://www.w3.org/2000/svg" viewBox="0 0 1199.11 199.11">
  <defs>
    <style>
      .cls-1 {
        fill: #bdbdbd;
      }

      .cls-2 {
        fill: #8cc85f;
      }

      .cls-3 {
        fill: #ff5d5d;
      }
    </style>
  </defs>
  <path class="cls-3" d="M102.55,98.54c-3.12-2.86-6.79-5.01-10.99-6.45-4.2-1.43-8.8-2.15-13.82-2.15-6.05,0-11.34,1.06-15.87,3.17-4.53,2.12-8.02,5.19-10.5,9.23-1.56,2.48-2.65,5.47-3.27,8.98s-.93,8.85-.93,16.02v50.39h-28.61v-109.38h28.61v16.99c2.8-6.25,7.1-11.08,12.89-14.5s12.56-5.13,20.31-5.13c3.91,0,7.73.47,11.47,1.42,3.74.94,7.31,2.33,10.69,4.15v27.25Z"/>
  <path class="cls-3" d="M120.13,123.15c0-17.64,4.57-31.62,13.72-41.94,9.15-10.32,21.44-15.48,36.87-15.48s27.82,5.16,36.96,15.48c9.15,10.32,13.72,24.3,13.72,41.94s-4.57,31.63-13.72,41.94c-9.15,10.32-21.47,15.48-36.96,15.48s-27.72-5.16-36.87-15.48c-9.15-10.32-13.72-24.3-13.72-41.94ZM170.72,88.97c-6.84,0-12.21,3.01-16.11,9.03-3.91,6.02-5.86,14.4-5.86,25.15s1.95,19.13,5.86,25.15c3.91,6.02,9.28,9.03,16.11,9.03s12.3-3.01,16.21-9.03c3.91-6.02,5.86-14.4,5.86-25.15s-1.95-19.12-5.86-25.15c-3.91-6.02-9.31-9.03-16.21-9.03Z"/>
  <path class="cls-3" d="M274.13,83.9c3.52-6.05,7.6-10.6,12.26-13.62s9.91-4.54,15.77-4.54c12.96,0,22.93,4.95,29.93,14.84,7,9.9,10.5,24.09,10.5,42.58s-3.45,32.36-10.35,42.38c-6.9,10.03-16.6,15.04-29.1,15.04-6.58,0-12.3-1.6-17.19-4.79s-8.82-7.94-11.82-14.26v16.21h-28.52V25.79h28.52v58.11ZM313.98,123.35c0-10.55-1.76-18.81-5.27-24.8-3.52-5.99-8.37-8.98-14.55-8.98s-11.07,3-14.65,8.98c-3.58,5.99-5.37,14.26-5.37,24.8s1.79,18.82,5.37,24.8c3.58,5.99,8.46,8.98,14.65,8.98s11.04-2.99,14.55-8.98c3.52-5.99,5.27-14.26,5.27-24.8Z"/>
  <path class="cls-3" d="M360.95,123.15c0-17.64,4.57-31.62,13.72-41.94,9.15-10.32,21.44-15.48,36.87-15.48s27.82,5.16,36.96,15.48c9.15,10.32,13.72,24.3,13.72,41.94s-4.57,31.63-13.72,41.94c-9.15,10.32-21.47,15.48-36.96,15.48s-27.72-5.16-36.87-15.48c-9.15-10.32-13.72-24.3-13.72-41.94ZM411.54,88.97c-6.84,0-12.21,3.01-16.11,9.03-3.91,6.02-5.86,14.4-5.86,25.15s1.95,19.13,5.86,25.15c3.91,6.02,9.28,9.03,16.11,9.03s12.3-3.01,16.21-9.03c3.91-6.02,5.86-14.4,5.86-25.15s-1.95-19.12-5.86-25.15c-3.91-6.02-9.31-9.03-16.21-9.03Z"/>
  <path class="cls-3" d="M539.17,37.31v31.05h37.4v21.97h-37.4v51.76c0,4.88,1.19,8.38,3.56,10.5,2.38,2.12,6.33,3.17,11.87,3.17h21.97v21.97h-24.02c-16.41,0-27.51-2.62-33.3-7.86-5.79-5.24-8.69-14.96-8.69-29.15v-50.39h-27.93v-21.97h27.93v-31.05h28.61Z"/>
  <path class="cls-1" d="M602.16,107.04h103.52v26.27h-103.52v-26.27Z"/>
  <path class="cls-2" d="M789.86,83.9V25.79h28.52v151.95h-28.52v-16.21c-3.06,6.32-7.02,11.07-11.87,14.26s-10.56,4.79-17.14,4.79c-12.5,0-22.2-5.01-29.1-15.04-6.9-10.02-10.35-24.15-10.35-42.38s3.5-32.68,10.5-42.58c7-9.9,16.98-14.84,29.93-14.84,5.86,0,11.12,1.51,15.77,4.54s8.74,7.57,12.26,13.62ZM750.01,123.35c0,10.55,1.76,18.82,5.27,24.8,3.52,5.99,8.37,8.98,14.55,8.98s11.07-2.99,14.65-8.98c3.58-5.99,5.37-14.26,5.37-24.8s-1.79-18.81-5.37-24.8c-3.58-5.99-8.46-8.98-14.65-8.98s-11.04,3-14.55,8.98c-3.52,5.99-5.27,14.26-5.27,24.8Z"/>
  <path class="cls-2" d="M854.6,68.37h56.64v87.4h35.55v21.97h-99.8v-21.97h35.64v-65.43h-28.03v-21.97ZM882.63,15.15h28.61v33.4h-28.61V15.15Z"/>
  <path class="cls-2" d="M1025.6,58.8v9.57h33.59v21.97h-33.59v87.4h-28.61v-87.4h-26.56v-21.97h26.56v-7.62c0-13.15,2.73-22.27,8.2-27.34s15.62-7.62,30.47-7.62h23.54v21.97h-22.36c-4.3,0-7.21.78-8.74,2.34s-2.36,4.46-2.49,8.69Z"/>
  <path class="cls-2" d="M1146.01,58.8v9.57h33.59v21.97h-33.59v87.4h-28.61v-87.4h-26.56v-21.97h26.56v-7.62c0-13.15,2.73-22.27,8.2-27.34s15.62-7.62,30.47-7.62h23.54v21.97h-22.36c-4.3,0-7.21.78-8.74,2.34s-2.36,4.46-2.49,8.69Z"/>
</svg>
